<?xml version="1.0" encoding="UTF-8"?>
<svg xmlns="http://www.w3.org/2000/svg" viewBox="0 0 512 512">
  <circle cx="256" cy="256" r="240" fill="#0a0a0a" stroke="#00ff00" stroke-width="15"/>
  <path d="M256,31.1C131.1,31.1,31.1,131.1,31.1,256S131.1,480.9,256,480.9S480.9,380.9,480.9,256S380.9,31.1,256,31.1z M256,55.3
    c40.9,0,78.9,12.5,110.4,33.8l-16.5,16.5c-27.4-17.4-59.9-27.5-94.9-27.5c-33.9,0-65.6,9.4-92.5,25.9l-16.2-16.2
    C177.8,67.4,215.5,55.3,256,55.3z M98.5,369.5c-21-31.5-33.2-69.3-33.2-109.8c0-41.4,12.7-79.9,34.6-111.6l16.5,16.5
    c-18,27.5-28.5,60.3-28.5,95.6c0,34.3,9.8,66.3,26.9,93.3L98.5,369.5z M256,456.7c-40.5,0-78.2-12.1-109.7-33l16.2-16.2
    c26.9,16.5,58.6,25.9,92.5,25.9c35,0,67.5-10.1,94.9-27.5l16.5,16.5C334.9,444.1,296.9,456.7,256,456.7z M412.5,370.2
    l-15.9-15.9c17.3-27.1,27.3-59.3,27.3-93.8c0-35.3-10.5-68-28.5-95.6l16.5-16.5c21.8,31.7,34.6,70.2,34.6,111.6
    C446.3,300.5,433.8,338.5,412.5,370.2z" fill="#00ff00"/>
</svg>
