<svg width="64" height="64" viewBox="0 0 64 64" xmlns="http://www.w3.org/2000/svg">
  <defs>
    <linearGradient id="dashboardGradient" x1="0%" y1="0%" x2="100%" y2="100%">
      <stop offset="0%" stop-color="#1976d2" />
      <stop offset="100%" stop-color="#42a5f5" />
    </linearGradient>
  </defs>
  <!-- Rounded square background -->
  <rect x="4" y="4" width="56" height="56" rx="14" fill="url(#dashboardGradient)" />
  <!-- Assessment icon path (white) -->
  <path d="M19 3H5c-1.1 0-2 .9-2 2v14c0 1.1.9 2 2 2h14c1.1 0 2-.9 2-2V5c0-1.1-.9-2-2-2M9 17H7v-5h2zm4 0h-2v-3h2zm0-5h-2v-2h2zm4 5h-2V7h2z" fill="#fff" transform="scale(2) translate(6,6)"/>
</svg>
